<svg width="40" height="40" viewBox="0 0 40 40" fill="none" xmlns="http://www.w3.org/2000/svg">
<rect width="40" height="40" rx="20" fill="#FCE7F6"/>
<path d="M23.3336 17.5V15C23.3336 13.1591 21.8412 11.6667 20.0003 11.6667C18.1593 11.6667 16.6669 13.1591 16.6669 15V17.5M12.9936 18.6267L12.4936 23.96C12.3514 25.4764 12.2804 26.2346 12.532 26.8202C12.753 27.3347 13.1404 27.7601 13.6319 28.0282C14.1915 28.3334 14.9531 28.3334 16.4761 28.3334H23.5244C25.0475 28.3334 25.809 28.3334 26.3686 28.0282C26.8602 27.7601 27.2475 27.3347 27.4686 26.8202C27.7202 26.2346 27.6491 25.4764 27.5069 23.96L27.0069 18.6267C26.8869 17.3461 26.8269 16.7059 26.5389 16.2218C26.2853 15.7955 25.9105 15.4543 25.4624 15.2416C24.9536 15 24.3105 15 23.0244 15L16.9761 15C15.69 15 15.0469 15 14.5381 15.2416C14.09 15.4543 13.7153 15.7955 13.4617 16.2218C13.1737 16.7059 13.1137 17.3461 12.9936 18.6267Z" stroke="#C11574" stroke-width="1.66667" stroke-linecap="round" stroke-linejoin="round"/>
</svg>
