<svg width="199" height="11" viewBox="0 0 199 11" fill="none" xmlns="http://www.w3.org/2000/svg">
<path d="M5.40341 10.6591C4.68087 10.6591 4.00142 10.5232 3.36506 10.2514C2.73201 9.97964 2.17353 9.60346 1.68963 9.12287C1.20904 8.63897 0.831203 8.08049 0.556108 7.44744C0.284328 6.81439 0.150095 6.13494 0.153409 5.40909C0.156723 4.68324 0.294271 4.00379 0.566051 3.37074C0.841146 2.73769 1.21899 2.18087 1.69957 1.70028C2.18016 1.21638 2.73698 0.838541 3.37003 0.566761C4.00308 0.294981 4.68087 0.159091 5.40341 0.159091C6.12926 0.159091 6.80871 0.294981 7.44176 0.566761C8.07813 0.838541 8.63494 1.21638 9.11222 1.70028C9.5928 2.18087 9.96899 2.73769 10.2408 3.37074C10.5125 4.00379 10.6501 4.68324 10.6534 5.40909C10.6567 6.13494 10.5225 6.81439 10.2507 7.44744C9.97893 8.08049 9.60275 8.63897 9.12216 9.12287C8.64157 9.60346 8.0831 9.97964 7.44673 10.2514C6.81037 10.5232 6.12926 10.6591 5.40341 10.6591ZM18.214 10.6591C17.4914 10.6591 16.812 10.5232 16.1756 10.2514C15.5426 9.97964 14.9841 9.60346 14.5002 9.12287C14.0196 8.63897 13.6417 8.08049 13.3667 7.44744C13.0949 6.81439 12.9606 6.13494 12.964 5.40909C12.9673 4.68324 13.1048 4.00379 13.3766 3.37074C13.6517 2.73769 14.0295 2.18087 14.5101 1.70028C14.9907 1.21638 15.5475 0.838541 16.1806 0.566761C16.8136 0.294981 17.4914 0.159091 18.214 0.159091C18.9398 0.159091 19.6193 0.294981 20.2523 0.566761C20.8887 0.838541 21.4455 1.21638 21.9228 1.70028C22.4034 2.18087 22.7795 2.73769 23.0513 3.37074C23.3231 4.00379 23.4606 4.68324 23.464 5.40909C23.4673 6.13494 23.333 6.81439 23.0613 7.44744C22.7895 8.08049 22.4133 8.63897 21.9327 9.12287C21.4521 9.60346 20.8936 9.97964 20.2573 10.2514C19.6209 10.5232 18.9398 10.6591 18.214 10.6591ZM31.0245 10.6591C30.302 10.6591 29.6225 10.5232 28.9862 10.2514C28.3531 9.97964 27.7946 9.60346 27.3107 9.12287C26.8301 8.63897 26.4523 8.08049 26.1772 7.44744C25.9054 6.81439 25.7712 6.13494 25.7745 5.40909C25.7778 4.68324 25.9154 4.00379 26.1871 3.37074C26.4622 2.73769 26.8401 2.18087 27.3207 1.70028C27.8013 1.21638 28.3581 0.838541 28.9911 0.566761C29.6242 0.294981 30.302 0.159091 31.0245 0.159091C31.7504 0.159091 32.4298 0.294981 33.0629 0.566761C33.6992 0.838541 34.256 1.21638 34.7333 1.70028C35.2139 2.18087 35.5901 2.73769 35.8619 3.37074C36.1336 4.00379 36.2712 4.68324 36.2745 5.40909C36.2778 6.13494 36.1436 6.81439 35.8718 7.44744C35.6 8.08049 35.2238 8.63897 34.7433 9.12287C34.2627 9.60346 33.7042 9.97964 33.0678 10.2514C32.4315 10.5232 31.7504 10.6591 31.0245 10.6591ZM43.835 10.6591C43.1125 10.6591 42.4331 10.5232 41.7967 10.2514C41.1636 9.97964 40.6052 9.60346 40.1213 9.12287C39.6407 8.63897 39.2628 8.08049 38.9877 7.44744C38.716 6.81439 38.5817 6.13494 38.585 5.40909C38.5884 4.68324 38.7259 4.00379 38.9977 3.37074C39.2728 2.73769 39.6506 2.18087 40.1312 1.70028C40.6118 1.21638 41.1686 0.838541 41.8017 0.566761C42.4347 0.294981 43.1125 0.159091 43.835 0.159091C44.5609 0.159091 45.2404 0.294981 45.8734 0.566761C46.5098 0.838541 47.0666 1.21638 47.5439 1.70028C48.0244 2.18087 48.4006 2.73769 48.6724 3.37074C48.9442 4.00379 49.0817 4.68324 49.085 5.40909C49.0884 6.13494 48.9541 6.81439 48.6824 7.44744C48.4106 8.08049 48.0344 8.63897 47.5538 9.12287C47.0732 9.60346 46.5147 9.97964 45.8784 10.2514C45.242 10.5232 44.5609 10.6591 43.835 10.6591ZM60.5831 10.6591C59.8606 10.6591 59.1811 10.5232 58.5447 10.2514C57.9117 9.97964 57.3532 9.60346 56.8693 9.12287C56.3887 8.63897 56.0109 8.08049 55.7358 7.44744C55.464 6.81439 55.3298 6.13494 55.3331 5.40909C55.3364 4.68324 55.474 4.00379 55.7457 3.37074C56.0208 2.73769 56.3987 2.18087 56.8793 1.70028C57.3598 1.21638 57.9167 0.838541 58.5497 0.566761C59.1828 0.294981 59.8606 0.159091 60.5831 0.159091C61.3089 0.159091 61.9884 0.294981 62.6214 0.566761C63.2578 0.838541 63.8146 1.21638 64.2919 1.70028C64.7725 2.18087 65.1487 2.73769 65.4205 3.37074C65.6922 4.00379 65.8298 4.68324 65.8331 5.40909C65.8364 6.13494 65.7022 6.81439 65.4304 7.44744C65.1586 8.08049 64.7824 8.63897 64.3018 9.12287C63.8213 9.60346 63.2628 9.97964 62.6264 10.2514C61.9901 10.5232 61.3089 10.6591 60.5831 10.6591ZM73.3936 10.6591C72.6711 10.6591 71.9917 10.5232 71.3553 10.2514C70.7222 9.97964 70.1638 9.60346 69.6799 9.12287C69.1993 8.63897 68.8214 8.08049 68.5463 7.44744C68.2746 6.81439 68.1403 6.13494 68.1436 5.40909C68.147 4.68324 68.2845 4.00379 68.5563 3.37074C68.8314 2.73769 69.2092 2.18087 69.6898 1.70028C70.1704 1.21638 70.7272 0.838541 71.3603 0.566761C71.9933 0.294981 72.6711 0.159091 73.3936 0.159091C74.1195 0.159091 74.7989 0.294981 75.432 0.566761C76.0684 0.838541 76.6252 1.21638 77.1025 1.70028C77.583 2.18087 77.9592 2.73769 78.231 3.37074C78.5028 4.00379 78.6403 4.68324 78.6436 5.40909C78.647 6.13494 78.5127 6.81439 78.2409 7.44744C77.9692 8.08049 77.593 8.63897 77.1124 9.12287C76.6318 9.60346 76.0733 9.97964 75.437 10.2514C74.8006 10.5232 74.1195 10.6591 73.3936 10.6591ZM86.2042 10.6591C85.4817 10.6591 84.8022 10.5232 84.1658 10.2514C83.5328 9.97964 82.9743 9.60346 82.4904 9.12287C82.0098 8.63897 81.632 8.08049 81.3569 7.44744C81.0851 6.81439 80.9509 6.13494 80.9542 5.40909C80.9575 4.68324 81.0951 4.00379 81.3668 3.37074C81.6419 2.73769 82.0198 2.18087 82.5004 1.70028C82.9809 1.21638 83.5378 0.838541 84.1708 0.566761C84.8039 0.294981 85.4817 0.159091 86.2042 0.159091C86.93 0.159091 87.6095 0.294981 88.2425 0.566761C88.8789 0.838541 89.4357 1.21638 89.913 1.70028C90.3936 2.18087 90.7698 2.73769 91.0415 3.37074C91.3133 4.00379 91.4509 4.68324 91.4542 5.40909C91.4575 6.13494 91.3233 6.81439 91.0515 7.44744C90.7797 8.08049 90.4035 8.63897 89.9229 9.12287C89.4424 9.60346 88.8839 9.97964 88.2475 10.2514C87.6112 10.5232 86.93 10.6591 86.2042 10.6591ZM99.0147 10.6591C98.2922 10.6591 97.6127 10.5232 96.9764 10.2514C96.3433 9.97964 95.7849 9.60346 95.301 9.12287C94.8204 8.63897 94.4425 8.08049 94.1674 7.44744C93.8957 6.81439 93.7614 6.13494 93.7647 5.40909C93.7681 4.68324 93.9056 4.00379 94.1774 3.37074C94.4525 2.73769 94.8303 2.18087 95.3109 1.70028C95.7915 1.21638 96.3483 0.838541 96.9814 0.566761C97.6144 0.294981 98.2922 0.159091 99.0147 0.159091C99.7406 0.159091 100.42 0.294981 101.053 0.566761C101.689 0.838541 102.246 1.21638 102.724 1.70028C103.204 2.18087 103.58 2.73769 103.852 3.37074C104.124 4.00379 104.261 4.68324 104.265 5.40909C104.268 6.13494 104.134 6.81439 103.862 7.44744C103.59 8.08049 103.214 8.63897 102.733 9.12287C102.253 9.60346 101.694 9.97964 101.058 10.2514C100.422 10.5232 99.7406 10.6591 99.0147 10.6591ZM115.763 10.6591C115.04 10.6591 114.361 10.5232 113.724 10.2514C113.091 9.97964 112.533 9.60346 112.049 9.12287C111.568 8.63897 111.191 8.08049 110.915 7.44744C110.644 6.81439 110.509 6.13494 110.513 5.40909C110.516 4.68324 110.654 4.00379 110.925 3.37074C111.201 2.73769 111.578 2.18087 112.059 1.70028C112.54 1.21638 113.096 0.838541 113.729 0.566761C114.362 0.294981 115.04 0.159091 115.763 0.159091C116.489 0.159091 117.168 0.294981 117.801 0.566761C118.438 0.838541 118.994 1.21638 119.472 1.70028C119.952 2.18087 120.328 2.73769 120.6 3.37074C120.872 4.00379 121.009 4.68324 121.013 5.40909C121.016 6.13494 120.882 6.81439 120.61 7.44744C120.338 8.08049 119.962 8.63897 119.482 9.12287C119.001 9.60346 118.442 9.97964 117.806 10.2514C117.17 10.5232 116.489 10.6591 115.763 10.6591ZM128.573 10.6591C127.851 10.6591 127.171 10.5232 126.535 10.2514C125.902 9.97964 125.343 9.60346 124.86 9.12287C124.379 8.63897 124.001 8.08049 123.726 7.44744C123.454 6.81439 123.32 6.13494 123.323 5.40909C123.327 4.68324 123.464 4.00379 123.736 3.37074C124.011 2.73769 124.389 2.18087 124.869 1.70028C125.35 1.21638 125.907 0.838541 126.54 0.566761C127.173 0.294981 127.851 0.159091 128.573 0.159091C129.299 0.159091 129.979 0.294981 130.612 0.566761C131.248 0.838541 131.805 1.21638 132.282 1.70028C132.763 2.18087 133.139 2.73769 133.411 3.37074C133.682 4.00379 133.82 4.68324 133.823 5.40909C133.827 6.13494 133.692 6.81439 133.421 7.44744C133.149 8.08049 132.773 8.63897 132.292 9.12287C131.811 9.60346 131.253 9.97964 130.617 10.2514C129.98 10.5232 129.299 10.6591 128.573 10.6591ZM141.384 10.6591C140.661 10.6591 139.982 10.5232 139.346 10.2514C138.712 9.97964 138.154 9.60346 137.67 9.12287C137.19 8.63897 136.812 8.08049 136.537 7.44744C136.265 6.81439 136.131 6.13494 136.134 5.40909C136.137 4.68324 136.275 4.00379 136.547 3.37074C136.822 2.73769 137.199 2.18087 137.68 1.70028C138.161 1.21638 138.717 0.838541 139.35 0.566761C139.984 0.294981 140.661 0.159091 141.384 0.159091C142.11 0.159091 142.789 0.294981 143.422 0.566761C144.059 0.838541 144.615 1.21638 145.093 1.70028C145.573 2.18087 145.949 2.73769 146.221 3.37074C146.493 4.00379 146.631 4.68324 146.634 5.40909C146.637 6.13494 146.503 6.81439 146.231 7.44744C145.959 8.08049 145.583 8.63897 145.103 9.12287C144.622 9.60346 144.064 9.97964 143.427 10.2514C142.791 10.5232 142.11 10.6591 141.384 10.6591ZM154.194 10.6591C153.472 10.6591 152.792 10.5232 152.156 10.2514C151.523 9.97964 150.965 9.60346 150.481 9.12287C150 8.63897 149.622 8.08049 149.347 7.44744C149.075 6.81439 148.941 6.13494 148.944 5.40909C148.948 4.68324 149.085 4.00379 149.357 3.37074C149.632 2.73769 150.01 2.18087 150.491 1.70028C150.971 1.21638 151.528 0.838541 152.161 0.566761C152.794 0.294981 153.472 0.159091 154.194 0.159091C154.92 0.159091 155.6 0.294981 156.233 0.566761C156.869 0.838541 157.426 1.21638 157.903 1.70028C158.384 2.18087 158.76 2.73769 159.032 3.37074C159.304 4.00379 159.441 4.68324 159.444 5.40909C159.448 6.13494 159.314 6.81439 159.042 7.44744C158.77 8.08049 158.394 8.63897 157.913 9.12287C157.433 9.60346 156.874 9.97964 156.238 10.2514C155.601 10.5232 154.92 10.6591 154.194 10.6591ZM168.835 0.178977C169.252 0.182291 169.67 0.261837 170.087 0.417613C170.505 0.57339 170.886 0.831913 171.231 1.19318C171.576 1.55114 171.852 2.04001 172.061 2.6598C172.27 3.27959 172.374 4.05682 172.374 4.99148C172.374 5.89631 172.288 6.70005 172.116 7.4027C171.947 8.10204 171.701 8.692 171.38 9.17259C171.062 9.65317 170.674 10.0178 170.217 10.2663C169.763 10.5149 169.249 10.6392 168.675 10.6392C168.105 10.6392 167.597 10.5265 167.149 10.3011C166.705 10.0724 166.34 9.75592 166.055 9.35156C165.774 8.94389 165.593 8.47159 165.513 7.93466H166.727C166.836 8.40199 167.053 8.78812 167.378 9.09304C167.706 9.39465 168.138 9.54545 168.675 9.54545C169.461 9.54545 170.081 9.20241 170.535 8.51634C170.992 7.83026 171.221 6.8608 171.221 5.60795H171.141C170.956 5.88636 170.735 6.12666 170.48 6.32884C170.225 6.53101 169.942 6.68679 169.63 6.79616C169.318 6.90554 168.987 6.96023 168.636 6.96023C168.052 6.96023 167.517 6.81605 167.03 6.5277C166.546 6.23603 166.158 5.83665 165.866 5.32955C165.578 4.81913 165.434 4.2358 165.434 3.57955C165.434 2.95644 165.573 2.38636 165.852 1.86932C166.133 1.34896 166.528 0.934659 167.035 0.62642C167.545 0.318182 168.145 0.169034 168.835 0.178977ZM168.835 1.27273C168.417 1.27273 168.041 1.37713 167.706 1.58594C167.375 1.79143 167.111 2.06984 166.915 2.42116C166.723 2.76918 166.627 3.1553 166.627 3.57955C166.627 4.00379 166.72 4.38991 166.906 4.73793C167.094 5.08262 167.351 5.35772 167.676 5.56321C168.004 5.76539 168.377 5.86648 168.795 5.86648C169.11 5.86648 169.403 5.80516 169.675 5.68253C169.946 5.55658 170.183 5.38589 170.386 5.17045C170.591 4.9517 170.752 4.70478 170.868 4.42969C170.984 4.15128 171.042 3.86127 171.042 3.55966C171.042 3.16193 170.946 2.78906 170.754 2.44105C170.565 2.09304 170.303 1.81132 169.968 1.59588C169.637 1.38044 169.259 1.27273 168.835 1.27273ZM177.571 0.178977C177.988 0.182291 178.406 0.261837 178.824 0.417613C179.241 0.57339 179.622 0.831913 179.967 1.19318C180.312 1.55114 180.589 2.04001 180.797 2.6598C181.006 3.27959 181.111 4.05682 181.111 4.99148C181.111 5.89631 181.024 6.70005 180.852 7.4027C180.683 8.10204 180.438 8.692 180.116 9.17259C179.798 9.65317 179.41 10.0178 178.953 10.2663C178.499 10.5149 177.985 10.6392 177.412 10.6392C176.842 10.6392 176.333 10.5265 175.885 10.3011C175.441 10.0724 175.077 9.75592 174.792 9.35156C174.51 8.94389 174.329 8.47159 174.25 7.93466H175.463C175.572 8.40199 175.789 8.78812 176.114 9.09304C176.442 9.39465 176.875 9.54545 177.412 9.54545C178.197 9.54545 178.817 9.20241 179.271 8.51634C179.729 7.83026 179.957 6.8608 179.957 5.60795H179.878C179.692 5.88636 179.472 6.12666 179.216 6.32884C178.961 6.53101 178.678 6.68679 178.366 6.79616C178.055 6.90554 177.723 6.96023 177.372 6.96023C176.789 6.96023 176.253 6.81605 175.766 6.5277C175.282 6.23603 174.894 5.83665 174.603 5.32955C174.314 4.81913 174.17 4.2358 174.17 3.57955C174.17 2.95644 174.309 2.38636 174.588 1.86932C174.87 1.34896 175.264 0.934659 175.771 0.62642C176.282 0.318182 176.881 0.169034 177.571 0.178977ZM177.571 1.27273C177.153 1.27273 176.777 1.37713 176.442 1.58594C176.111 1.79143 175.847 2.06984 175.652 2.42116C175.46 2.76918 175.363 3.1553 175.363 3.57955C175.363 4.00379 175.456 4.38991 175.642 4.73793C175.831 5.08262 176.088 5.35772 176.412 5.56321C176.741 5.76539 177.113 5.86648 177.531 5.86648C177.846 5.86648 178.139 5.80516 178.411 5.68253C178.683 5.55658 178.92 5.38589 179.122 5.17045C179.327 4.9517 179.488 4.70478 179.604 4.42969C179.72 4.15128 179.778 3.86127 179.778 3.55966C179.778 3.16193 179.682 2.78906 179.49 2.44105C179.301 2.09304 179.039 1.81132 178.704 1.59588C178.373 1.38044 177.995 1.27273 177.571 1.27273ZM186.307 0.178977C186.725 0.182291 187.142 0.261837 187.56 0.417613C187.978 0.57339 188.359 0.831913 188.703 1.19318C189.048 1.55114 189.325 2.04001 189.534 2.6598C189.743 3.27959 189.847 4.05682 189.847 4.99148C189.847 5.89631 189.761 6.70005 189.588 7.4027C189.419 8.10204 189.174 8.692 188.853 9.17259C188.534 9.65317 188.147 10.0178 187.689 10.2663C187.235 10.5149 186.721 10.6392 186.148 10.6392C185.578 10.6392 185.069 10.5265 184.622 10.3011C184.178 10.0724 183.813 9.75592 183.528 9.35156C183.246 8.94389 183.066 8.47159 182.986 7.93466H184.199C184.309 8.40199 184.526 8.78812 184.85 9.09304C185.179 9.39465 185.611 9.54545 186.148 9.54545C186.934 9.54545 187.553 9.20241 188.007 8.51634C188.465 7.83026 188.694 6.8608 188.694 5.60795H188.614C188.428 5.88636 188.208 6.12666 187.953 6.32884C187.698 6.53101 187.414 6.68679 187.103 6.79616C186.791 6.90554 186.46 6.96023 186.108 6.96023C185.525 6.96023 184.99 6.81605 184.502 6.5277C184.019 6.23603 183.631 5.83665 183.339 5.32955C183.051 4.81913 182.907 4.2358 182.907 3.57955C182.907 2.95644 183.046 2.38636 183.324 1.86932C183.606 1.34896 184 0.934659 184.507 0.62642C185.018 0.318182 185.618 0.169034 186.307 0.178977ZM186.307 1.27273C185.89 1.27273 185.513 1.37713 185.179 1.58594C184.847 1.79143 184.584 2.06984 184.388 2.42116C184.196 2.76918 184.1 3.1553 184.1 3.57955C184.1 4.00379 184.193 4.38991 184.378 4.73793C184.567 5.08262 184.824 5.35772 185.149 5.56321C185.477 5.76539 185.85 5.86648 186.267 5.86648C186.582 5.86648 186.876 5.80516 187.147 5.68253C187.419 5.55658 187.656 5.38589 187.858 5.17045C188.064 4.9517 188.225 4.70478 188.341 4.42969C188.457 4.15128 188.515 3.86127 188.515 3.55966C188.515 3.16193 188.418 2.78906 188.226 2.44105C188.037 2.09304 187.775 1.81132 187.441 1.59588C187.109 1.38044 186.731 1.27273 186.307 1.27273ZM195.044 0.178977C195.461 0.182291 195.879 0.261837 196.296 0.417613C196.714 0.57339 197.095 0.831913 197.44 1.19318C197.785 1.55114 198.061 2.04001 198.27 2.6598C198.479 3.27959 198.583 4.05682 198.583 4.99148C198.583 5.89631 198.497 6.70005 198.325 7.4027C198.156 8.10204 197.91 8.692 197.589 9.17259C197.271 9.65317 196.883 10.0178 196.426 10.2663C195.972 10.5149 195.458 10.6392 194.884 10.6392C194.314 10.6392 193.806 10.5265 193.358 10.3011C192.914 10.0724 192.549 9.75592 192.264 9.35156C191.983 8.94389 191.802 8.47159 191.722 7.93466H192.936C193.045 8.40199 193.262 8.78812 193.587 9.09304C193.915 9.39465 194.347 9.54545 194.884 9.54545C195.67 9.54545 196.29 9.20241 196.744 8.51634C197.201 7.83026 197.43 6.8608 197.43 5.60795H197.35C197.165 5.88636 196.944 6.12666 196.689 6.32884C196.434 6.53101 196.151 6.68679 195.839 6.79616C195.527 6.90554 195.196 6.96023 194.845 6.96023C194.261 6.96023 193.726 6.81605 193.239 6.5277C192.755 6.23603 192.367 5.83665 192.075 5.32955C191.787 4.81913 191.643 4.2358 191.643 3.57955C191.643 2.95644 191.782 2.38636 192.061 1.86932C192.342 1.34896 192.737 0.934659 193.244 0.62642C193.754 0.318182 194.354 0.169034 195.044 0.178977ZM195.044 1.27273C194.626 1.27273 194.25 1.37713 193.915 1.58594C193.584 1.79143 193.32 2.06984 193.124 2.42116C192.932 2.76918 192.836 3.1553 192.836 3.57955C192.836 4.00379 192.929 4.38991 193.115 4.73793C193.303 5.08262 193.56 5.35772 193.885 5.56321C194.213 5.76539 194.586 5.86648 195.004 5.86648C195.319 5.86648 195.612 5.80516 195.884 5.68253C196.155 5.55658 196.392 5.38589 196.595 5.17045C196.8 4.9517 196.961 4.70478 197.077 4.42969C197.193 4.15128 197.251 3.86127 197.251 3.55966C197.251 3.16193 197.155 2.78906 196.963 2.44105C196.774 2.09304 196.512 1.81132 196.177 1.59588C195.846 1.38044 195.468 1.27273 195.044 1.27273Z" fill="white"/>
</svg>
