<svg width="293" height="40" viewBox="0 0 293 40" fill="none" xmlns="http://www.w3.org/2000/svg">
<g clip-path="url(#clip0_8_3980)">
<rect x="0.5" width="40" height="40" rx="8" fill="#F9FAFB"/>
<path d="M22.0337 14.8182V25H20.4925V16.3594H20.4329L17.9968 17.9503V16.4787L20.5373 14.8182H22.0337Z" fill="#1D2939"/>
</g>
<g clip-path="url(#clip1_8_3980)">
<path d="M59.1864 25V23.8864L62.6317 20.3168C62.9996 19.929 63.3029 19.5893 63.5415 19.2976C63.7835 19.0026 63.9641 18.7225 64.0835 18.4574C64.2028 18.1922 64.2624 17.9105 64.2624 17.6122C64.2624 17.2741 64.1829 16.9825 64.0238 16.7372C63.8647 16.4886 63.6476 16.2981 63.3725 16.1655C63.0974 16.0296 62.7875 15.9616 62.4428 15.9616C62.0782 15.9616 61.7601 16.0362 61.4883 16.1854C61.2165 16.3345 61.0077 16.545 60.8619 16.8168C60.716 17.0885 60.6431 17.4067 60.6431 17.7713H59.1765C59.1765 17.1515 59.319 16.6096 59.604 16.1456C59.8891 15.6816 60.2802 15.322 60.7773 15.0668C61.2745 14.8082 61.8396 14.679 62.4727 14.679C63.1123 14.679 63.6758 14.8066 64.163 15.0618C64.6535 15.3137 65.0363 15.6584 65.3114 16.0959C65.5865 16.5301 65.7241 17.0206 65.7241 17.5675C65.7241 17.9453 65.6528 18.3149 65.5103 18.6761C65.3711 19.0374 65.1275 19.4401 64.7795 19.8842C64.4315 20.325 63.9476 20.8603 63.3278 21.4901L61.3043 23.608V23.6825H65.8881V25H59.1864Z" fill="#475467"/>
</g>
<g clip-path="url(#clip2_8_3980)">
<path d="M104.512 25.1392C103.83 25.1392 103.22 25.0215 102.683 24.7862C102.149 24.5509 101.727 24.2244 101.415 23.8068C101.107 23.3859 100.941 22.8987 100.918 22.3452H102.479C102.499 22.6468 102.6 22.9086 102.782 23.1307C102.968 23.3494 103.21 23.5185 103.508 23.6378C103.806 23.7571 104.138 23.8168 104.502 23.8168C104.904 23.8168 105.258 23.7472 105.566 23.608C105.878 23.4687 106.122 23.2749 106.297 23.0263C106.473 22.7744 106.561 22.4844 106.561 22.1562C106.561 21.8149 106.473 21.5149 106.297 21.2564C106.125 20.9946 105.871 20.7891 105.537 20.6399C105.205 20.4908 104.804 20.4162 104.333 20.4162H103.473V19.1634H104.333C104.711 19.1634 105.043 19.0954 105.328 18.9595C105.616 18.8236 105.842 18.6347 106.004 18.3928C106.166 18.1475 106.248 17.8608 106.248 17.5327C106.248 17.2178 106.176 16.9444 106.034 16.7124C105.895 16.477 105.696 16.2931 105.437 16.1605C105.182 16.0279 104.88 15.9616 104.532 15.9616C104.201 15.9616 103.891 16.023 103.603 16.1456C103.318 16.2649 103.086 16.4373 102.907 16.6626C102.728 16.8847 102.632 17.1515 102.618 17.4631H101.132C101.148 16.9129 101.311 16.429 101.619 16.0114C101.931 15.5937 102.342 15.2673 102.852 15.032C103.362 14.7966 103.929 14.679 104.552 14.679C105.205 14.679 105.769 14.8066 106.243 15.0618C106.72 15.3137 107.088 15.6501 107.346 16.071C107.608 16.492 107.737 16.9527 107.734 17.4531C107.737 18.0232 107.578 18.5071 107.257 18.9048C106.939 19.3026 106.514 19.5694 105.984 19.7053V19.7848C106.66 19.8875 107.184 20.156 107.555 20.5902C107.93 21.0244 108.115 21.563 108.112 22.206C108.115 22.7661 107.959 23.2682 107.645 23.7124C107.333 24.1565 106.907 24.5062 106.367 24.7614C105.827 25.0133 105.208 25.1392 104.512 25.1392Z" fill="#475467"/>
</g>
<g clip-path="url(#clip3_8_3980)">
<path d="M142.531 25.0945C142.26 25.0945 142.026 24.9983 141.83 24.8061C141.635 24.6106 141.537 24.3752 141.537 24.1001C141.537 23.8284 141.635 23.5964 141.83 23.4041C142.026 23.2086 142.26 23.1108 142.531 23.1108C142.803 23.1108 143.037 23.2086 143.232 23.4041C143.428 23.5964 143.526 23.8284 143.526 24.1001C143.526 24.2824 143.479 24.4498 143.387 24.6023C143.297 24.7514 143.178 24.8707 143.029 24.9602C142.879 25.0497 142.714 25.0945 142.531 25.0945ZM146.496 25.0945C146.224 25.0945 145.991 24.9983 145.795 24.8061C145.6 24.6106 145.502 24.3752 145.502 24.1001C145.502 23.8284 145.6 23.5964 145.795 23.4041C145.991 23.2086 146.224 23.1108 146.496 23.1108C146.768 23.1108 147.002 23.2086 147.197 23.4041C147.393 23.5964 147.491 23.8284 147.491 24.1001C147.491 24.2824 147.444 24.4498 147.351 24.6023C147.262 24.7514 147.143 24.8707 146.993 24.9602C146.844 25.0497 146.679 25.0945 146.496 25.0945ZM150.461 25.0945C150.189 25.0945 149.956 24.9983 149.76 24.8061C149.565 24.6106 149.467 24.3752 149.467 24.1001C149.467 23.8284 149.565 23.5964 149.76 23.4041C149.956 23.2086 150.189 23.1108 150.461 23.1108C150.733 23.1108 150.967 23.2086 151.162 23.4041C151.358 23.5964 151.455 23.8284 151.455 24.1001C151.455 24.2824 151.409 24.4498 151.316 24.6023C151.227 24.7514 151.107 24.8707 150.958 24.9602C150.809 25.0497 150.643 25.0945 150.461 25.0945Z" fill="#475467"/>
</g>
<g clip-path="url(#clip4_8_3980)">
<path d="M188.497 25.1392C187.784 25.1392 187.155 25.0166 186.608 24.7713C186.064 24.526 185.638 24.188 185.33 23.7571C185.022 23.3262 184.869 22.8357 184.873 22.2855C184.869 21.8546 184.957 21.4586 185.136 21.0973C185.318 20.7327 185.565 20.4295 185.877 20.1875C186.188 19.9422 186.536 19.7865 186.921 19.7202V19.6605C186.414 19.5379 186.008 19.2661 185.703 18.8452C185.398 18.4242 185.247 17.9403 185.25 17.3935C185.247 16.8731 185.385 16.4091 185.663 16.0014C185.945 15.5904 186.331 15.2673 186.821 15.032C187.312 14.7966 187.87 14.679 188.497 14.679C189.117 14.679 189.67 14.7983 190.157 15.0369C190.648 15.2723 191.034 15.5954 191.316 16.0064C191.598 16.4141 191.74 16.8764 191.743 17.3935C191.74 17.9403 191.584 18.4242 191.276 18.8452C190.968 19.2661 190.567 19.5379 190.073 19.6605V19.7202C190.454 19.7865 190.797 19.9422 191.102 20.1875C191.41 20.4295 191.656 20.7327 191.838 21.0973C192.023 21.4586 192.118 21.8546 192.121 22.2855C192.118 22.8357 191.962 23.3262 191.654 23.7571C191.346 24.188 190.918 24.526 190.371 24.7713C189.828 25.0166 189.203 25.1392 188.497 25.1392ZM188.497 23.8814C188.918 23.8814 189.282 23.8118 189.591 23.6726C189.899 23.5301 190.138 23.3329 190.307 23.081C190.476 22.8258 190.562 22.5275 190.565 22.1861C190.562 21.8314 190.469 21.5182 190.287 21.2464C190.108 20.9747 189.864 20.7609 189.556 20.6051C189.248 20.4493 188.895 20.3714 188.497 20.3714C188.096 20.3714 187.74 20.4493 187.428 20.6051C187.116 20.7609 186.871 20.9747 186.692 21.2464C186.513 21.5182 186.425 21.8314 186.429 22.1861C186.425 22.5275 186.507 22.8258 186.672 23.081C186.841 23.3329 187.082 23.5301 187.393 23.6726C187.705 23.8118 188.073 23.8814 188.497 23.8814ZM188.497 19.1435C188.835 19.1435 189.135 19.0755 189.397 18.9396C189.659 18.8037 189.864 18.6148 190.013 18.3729C190.166 18.1309 190.244 17.8475 190.247 17.5227C190.244 17.2045 190.167 16.9261 190.018 16.6875C189.872 16.4489 189.669 16.2649 189.407 16.1357C189.145 16.0031 188.842 15.9368 188.497 15.9368C188.146 15.9368 187.837 16.0031 187.572 16.1357C187.31 16.2649 187.107 16.4489 186.961 16.6875C186.815 16.9261 186.744 17.2045 186.747 17.5227C186.744 17.8475 186.816 18.1309 186.966 18.3729C187.115 18.6148 187.32 18.8037 187.582 18.9396C187.847 19.0755 188.152 19.1435 188.497 19.1435Z" fill="#475467"/>
</g>
<g clip-path="url(#clip5_8_3980)">
<path d="M230.415 14.679C230.869 14.6823 231.316 14.7652 231.757 14.9276C232.198 15.09 232.596 15.3551 232.95 15.723C233.308 16.0909 233.593 16.5881 233.805 17.2145C234.021 17.8376 234.13 18.6132 234.134 19.5412C234.134 20.4328 234.044 21.2266 233.865 21.9226C233.686 22.6153 233.429 23.2003 233.095 23.6776C232.763 24.1548 232.36 24.5178 231.886 24.7663C231.412 25.0149 230.879 25.1392 230.286 25.1392C229.679 25.1392 229.14 25.0199 228.67 24.7812C228.199 24.5426 227.816 24.2128 227.521 23.7919C227.226 23.3677 227.042 22.8804 226.97 22.3303H228.486C228.585 22.7678 228.787 23.1224 229.092 23.3942C229.401 23.6626 229.798 23.7969 230.286 23.7969C231.031 23.7969 231.613 23.4721 232.031 22.8224C232.448 22.1695 232.659 21.258 232.662 20.0881H232.582C232.41 20.3731 232.195 20.6184 231.936 20.8239C231.681 21.0294 231.394 21.1884 231.076 21.3011C230.758 21.4138 230.418 21.4702 230.057 21.4702C229.47 21.4702 228.937 21.326 228.456 21.0376C227.975 20.7493 227.593 20.3532 227.308 19.8494C227.023 19.3456 226.88 18.7706 226.88 18.1243C226.88 17.4813 227.026 16.898 227.318 16.3743C227.613 15.8506 228.024 15.4363 228.551 15.1314C229.081 14.8232 229.702 14.6723 230.415 14.679ZM230.42 15.9716C230.032 15.9716 229.682 16.0677 229.371 16.2599C229.063 16.4489 228.819 16.7057 228.64 17.0305C228.461 17.352 228.372 17.71 228.372 18.1044C228.372 18.4988 228.458 18.8568 228.63 19.1783C228.806 19.4964 229.044 19.75 229.346 19.9389C229.651 20.1245 229.999 20.2173 230.39 20.2173C230.682 20.2173 230.953 20.161 231.205 20.0483C231.457 19.9356 231.678 19.7798 231.867 19.581C232.055 19.3788 232.203 19.1501 232.309 18.8949C232.415 18.6397 232.468 18.3712 232.468 18.0895C232.468 17.715 232.379 17.367 232.2 17.0455C232.024 16.724 231.782 16.4654 231.474 16.2699C231.166 16.071 230.814 15.9716 230.42 15.9716Z" fill="#475467"/>
</g>
<g clip-path="url(#clip6_8_3980)">
<path d="M269.515 14.8182V25H267.974V16.3594H267.914L265.478 17.9503V16.4787L268.019 14.8182H269.515ZM275.814 25.169C275.029 25.1657 274.358 24.9586 273.801 24.5476C273.244 24.1366 272.818 23.5384 272.523 22.7528C272.228 21.9673 272.081 21.0211 272.081 19.9141C272.081 18.8104 272.228 17.8674 272.523 17.0852C272.821 16.303 273.249 15.7064 273.806 15.2955C274.366 14.8845 275.035 14.679 275.814 14.679C276.593 14.679 277.261 14.8861 277.818 15.3004C278.375 15.7114 278.8 16.308 279.095 17.0902C279.394 17.8691 279.543 18.8104 279.543 19.9141C279.543 21.0244 279.395 21.9723 279.1 22.7578C278.805 23.54 278.38 24.1383 277.823 24.5526C277.266 24.9635 276.596 25.169 275.814 25.169ZM275.814 23.8416C276.504 23.8416 277.042 23.5052 277.43 22.8324C277.821 22.1596 278.017 21.1868 278.017 19.9141C278.017 19.0689 277.927 18.3546 277.748 17.7713C277.572 17.1847 277.319 16.7405 276.987 16.4389C276.659 16.134 276.268 15.9815 275.814 15.9815C275.128 15.9815 274.59 16.3196 274.198 16.9957C273.807 17.6719 273.61 18.6446 273.607 19.9141C273.607 20.7625 273.695 21.4801 273.87 22.0668C274.049 22.6501 274.303 23.0926 274.631 23.3942C274.959 23.6925 275.353 23.8416 275.814 23.8416Z" fill="#475467"/>
</g>
<defs>
<clipPath id="clip0_8_3980">
<rect x="0.5" width="40" height="40" rx="8" fill="white"/>
</clipPath>
<clipPath id="clip1_8_3980">
<rect x="42.5" width="40" height="40" rx="8" fill="white"/>
</clipPath>
<clipPath id="clip2_8_3980">
<rect x="84.5" width="40" height="40" rx="8" fill="white"/>
</clipPath>
<clipPath id="clip3_8_3980">
<rect x="126.5" width="40" height="40" rx="8" fill="white"/>
</clipPath>
<clipPath id="clip4_8_3980">
<rect x="168.5" width="40" height="40" rx="8" fill="white"/>
</clipPath>
<clipPath id="clip5_8_3980">
<rect x="210.5" width="40" height="40" rx="8" fill="white"/>
</clipPath>
<clipPath id="clip6_8_3980">
<rect x="252.5" width="40" height="40" rx="8" fill="white"/>
</clipPath>
</defs>
</svg>
