<svg width="1096" height="61" viewBox="0 0 1096 61" fill="none" xmlns="http://www.w3.org/2000/svg">
<mask id="path-1-outside-1_8_3975" maskUnits="userSpaceOnUse" x="0" y="0" width="1096" height="61" fill="black">
<rect fill="white" width="1096" height="61"/>
<path d="M0 1H1096V61H0V1Z"/>
</mask>
<path d="M0 2H1096V0H0V2Z" fill="#EAECF0" mask="url(#path-1-outside-1_8_3975)"/>
<g clip-path="url(#clip0_8_3975)">
<path d="M31.8332 41H20.1665M20.1665 41L25.9998 46.8334M20.1665 41L25.9998 35.1667" stroke="#475467" stroke-width="1.66667" stroke-linecap="round" stroke-linejoin="round"/>
<path d="M45.0043 46V35.8182H48.8224C49.6046 35.8182 50.2609 35.964 50.7912 36.2557C51.3248 36.5473 51.7275 36.9484 51.9993 37.4588C52.2744 37.9659 52.4119 38.5426 52.4119 39.1889C52.4119 39.8419 52.2744 40.4219 51.9993 40.929C51.7242 41.4361 51.3182 41.8355 50.7812 42.1271C50.2443 42.4155 49.5831 42.5597 48.7976 42.5597H46.267V41.0433H48.549C49.0064 41.0433 49.3809 40.9638 49.6726 40.8047C49.9643 40.6456 50.1797 40.4268 50.3189 40.1484C50.4614 39.87 50.5327 39.5502 50.5327 39.1889C50.5327 38.8277 50.4614 38.5095 50.3189 38.2344C50.1797 37.9593 49.9626 37.7455 49.6676 37.593C49.3759 37.4373 48.9998 37.3594 48.5391 37.3594H46.8487V46H45.0043ZM53.9345 46V38.3636H55.6795V39.6364H55.7591C55.8983 39.1955 56.1369 38.8558 56.475 38.6172C56.8163 38.3752 57.2058 38.2543 57.6433 38.2543C57.7427 38.2543 57.8538 38.2592 57.9764 38.2692C58.1023 38.2758 58.2067 38.2874 58.2896 38.304V39.9595C58.2134 39.933 58.0924 39.9098 57.9267 39.8899C57.7643 39.8667 57.6068 39.8551 57.4544 39.8551C57.1262 39.8551 56.8313 39.9264 56.5694 40.0689C56.3109 40.2081 56.1071 40.402 55.9579 40.6506C55.8088 40.8991 55.7342 41.1858 55.7342 41.5107V46H53.9345ZM62.5515 46.1491C61.7859 46.1491 61.1246 45.9901 60.5678 45.6719C60.0143 45.3504 59.5884 44.8963 59.2901 44.3097C58.9918 43.7197 58.8427 43.0253 58.8427 42.2266C58.8427 41.4411 58.9918 40.7517 59.2901 40.1584C59.5917 39.5618 60.0127 39.0978 60.5529 38.7663C61.0932 38.4316 61.7279 38.2642 62.457 38.2642C62.9277 38.2642 63.3718 38.3404 63.7894 38.4929C64.2103 38.642 64.5816 38.8741 64.9031 39.1889C65.2279 39.5038 65.4831 39.9048 65.6687 40.392C65.8543 40.8759 65.9471 41.4527 65.9471 42.1222V42.674H59.6879V41.4609H64.2219C64.2186 41.1162 64.1441 40.8097 63.9982 40.5412C63.8524 40.2694 63.6486 40.0556 63.3867 39.8999C63.1282 39.7441 62.8266 39.6662 62.4819 39.6662C62.114 39.6662 61.7908 39.7557 61.5124 39.9347C61.234 40.1103 61.0169 40.3423 60.8612 40.6307C60.7087 40.9157 60.6308 41.2289 60.6275 41.5703V42.6293C60.6275 43.0734 60.7087 43.4545 60.8711 43.7727C61.0335 44.0876 61.2605 44.3295 61.5522 44.4986C61.8439 44.6643 62.1853 44.7472 62.5763 44.7472C62.8382 44.7472 63.0752 44.7107 63.2873 44.6378C63.4994 44.5616 63.6834 44.4505 63.8391 44.3047C63.9949 44.1589 64.1126 43.9782 64.1921 43.7628L65.8725 43.9517C65.7665 44.3958 65.5643 44.7836 65.266 45.1151C64.971 45.4432 64.5932 45.6984 64.1325 45.8807C63.6718 46.0597 63.1448 46.1491 62.5515 46.1491ZM74.0719 38.3636L71.3525 46H69.3638L66.6444 38.3636H68.5634L70.3184 44.0362H70.3979L72.1578 38.3636H74.0719ZM75.3173 46V38.3636H77.117V46H75.3173ZM76.2221 37.2798C75.9371 37.2798 75.6918 37.1854 75.4863 36.9964C75.2808 36.8042 75.1781 36.5739 75.1781 36.3054C75.1781 36.0336 75.2808 35.8033 75.4863 35.6143C75.6918 35.4221 75.9371 35.326 76.2221 35.326C76.5105 35.326 76.7557 35.4221 76.9579 35.6143C77.1634 35.8033 77.2662 36.0336 77.2662 36.3054C77.2662 36.5739 77.1634 36.8042 76.9579 36.9964C76.7557 37.1854 76.5105 37.2798 76.2221 37.2798ZM82.2987 46.1491C81.5529 46.1491 80.9066 45.9851 80.3597 45.657C79.8129 45.3288 79.3886 44.8698 79.087 44.2798C78.7887 43.6899 78.6396 43.0005 78.6396 42.2116C78.6396 41.4228 78.7887 40.7318 79.087 40.1385C79.3886 39.5452 79.8129 39.0845 80.3597 38.7564C80.9066 38.4283 81.5529 38.2642 82.2987 38.2642C83.0444 38.2642 83.6907 38.4283 84.2376 38.7564C84.7844 39.0845 85.207 39.5452 85.5053 40.1385C85.8069 40.7318 85.9577 41.4228 85.9577 42.2116C85.9577 43.0005 85.8069 43.6899 85.5053 44.2798C85.207 44.8698 84.7844 45.3288 84.2376 45.657C83.6907 45.9851 83.0444 46.1491 82.2987 46.1491ZM82.3086 44.7074C82.7129 44.7074 83.051 44.5964 83.3228 44.3743C83.5946 44.1489 83.7968 43.8473 83.9293 43.4695C84.0652 43.0916 84.1332 42.6707 84.1332 42.2067C84.1332 41.7393 84.0652 41.3168 83.9293 40.9389C83.7968 40.5578 83.5946 40.2545 83.3228 40.0291C83.051 39.8037 82.7129 39.6911 82.3086 39.6911C81.8943 39.6911 81.5496 39.8037 81.2745 40.0291C81.0027 40.2545 80.7989 40.5578 80.663 40.9389C80.5304 41.3168 80.4641 41.7393 80.4641 42.2067C80.4641 42.6707 80.5304 43.0916 80.663 43.4695C80.7989 43.8473 81.0027 44.1489 81.2745 44.3743C81.5496 44.5964 81.8943 44.7074 82.3086 44.7074ZM92.3525 42.7884V38.3636H94.1522V46H92.4071V44.6428H92.3276C92.1552 45.0703 91.8719 45.42 91.4775 45.6918C91.0864 45.9635 90.6041 46.0994 90.0307 46.0994C89.5302 46.0994 89.0878 45.9884 88.7033 45.7663C88.3221 45.541 88.0239 45.2145 87.8084 44.7869C87.593 44.3561 87.4853 43.8357 87.4853 43.2259V38.3636H89.285V42.9474C89.285 43.4313 89.4176 43.8158 89.6827 44.1009C89.9479 44.3859 90.2959 44.5284 90.7267 44.5284C90.9919 44.5284 91.2488 44.4638 91.4973 44.3345C91.7459 44.2053 91.9498 44.013 92.1088 43.7578C92.2712 43.4993 92.3525 43.1761 92.3525 42.7884ZM102.038 40.3821L100.398 40.5611C100.351 40.3954 100.27 40.2396 100.154 40.0938C100.041 39.9479 99.889 39.8303 99.6967 39.7408C99.5045 39.6513 99.2692 39.6065 98.9908 39.6065C98.6162 39.6065 98.3014 39.6877 98.0462 39.8501C97.7943 40.0125 97.67 40.223 97.6733 40.4815C97.67 40.7036 97.7512 40.8842 97.9169 41.0234C98.0859 41.1626 98.3643 41.277 98.7521 41.3665L100.055 41.6449C100.777 41.8007 101.314 42.0476 101.665 42.3857C102.02 42.7237 102.199 43.1662 102.202 43.7131C102.199 44.1937 102.058 44.6179 101.78 44.9858C101.505 45.3504 101.122 45.6354 100.631 45.8409C100.141 46.0464 99.5774 46.1491 98.9411 46.1491C98.0064 46.1491 97.254 45.9536 96.6839 45.5625C96.1139 45.1681 95.7741 44.6196 95.6648 43.9169L97.4197 43.7479C97.4993 44.0926 97.6683 44.3527 97.9268 44.5284C98.1854 44.7041 98.5218 44.7919 98.9361 44.7919C99.3636 44.7919 99.7067 44.7041 99.9652 44.5284C100.227 44.3527 100.358 44.1357 100.358 43.8771C100.358 43.6584 100.273 43.4777 100.104 43.3352C99.9387 43.1927 99.6802 43.0833 99.3288 43.0071L98.0263 42.7337C97.2938 42.5812 96.7519 42.3243 96.4006 41.9631C96.0492 41.5985 95.8752 41.1378 95.8786 40.581C95.8752 40.1103 96.0028 39.7027 96.2614 39.358C96.5232 39.0099 96.8861 38.7415 97.3501 38.5526C97.8175 38.3603 98.3561 38.2642 98.9659 38.2642C99.8608 38.2642 100.565 38.4548 101.079 38.8359C101.596 39.2171 101.916 39.7325 102.038 40.3821Z" fill="#475467"/>
</g>
<g clip-path="url(#clip1_8_3975)">
<rect x="415.5" y="21" width="40" height="40" rx="8" fill="#F9FAFB"/>
<path d="M437.034 35.8182V46H435.493V37.3594H435.433L432.997 38.9503V37.4787L435.537 35.8182H437.034Z" fill="#1D2939"/>
</g>
<g clip-path="url(#clip2_8_3975)">
<path d="M474.186 46V44.8864L477.632 41.3168C478 40.929 478.303 40.5893 478.542 40.2976C478.783 40.0026 478.964 39.7225 479.083 39.4574C479.203 39.1922 479.262 38.9105 479.262 38.6122C479.262 38.2741 479.183 37.9825 479.024 37.7372C478.865 37.4886 478.648 37.2981 478.373 37.1655C478.097 37.0296 477.788 36.9616 477.443 36.9616C477.078 36.9616 476.76 37.0362 476.488 37.1854C476.217 37.3345 476.008 37.545 475.862 37.8168C475.716 38.0885 475.643 38.4067 475.643 38.7713H474.176C474.176 38.1515 474.319 37.6096 474.604 37.1456C474.889 36.6816 475.28 36.322 475.777 36.0668C476.275 35.8082 476.84 35.679 477.473 35.679C478.112 35.679 478.676 35.8066 479.163 36.0618C479.654 36.3137 480.036 36.6584 480.311 37.0959C480.587 37.5301 480.724 38.0206 480.724 38.5675C480.724 38.9453 480.653 39.3149 480.51 39.6761C480.371 40.0374 480.127 40.4401 479.779 40.8842C479.431 41.325 478.948 41.8603 478.328 42.4901L476.304 44.608V44.6825H480.888V46H474.186Z" fill="#475467"/>
</g>
<g clip-path="url(#clip3_8_3975)">
<path d="M519.512 46.1392C518.83 46.1392 518.22 46.0215 517.683 45.7862C517.149 45.5509 516.727 45.2244 516.415 44.8068C516.107 44.3859 515.941 43.8987 515.918 43.3452H517.479C517.499 43.6468 517.6 43.9086 517.782 44.1307C517.968 44.3494 518.21 44.5185 518.508 44.6378C518.806 44.7571 519.138 44.8168 519.502 44.8168C519.904 44.8168 520.258 44.7472 520.566 44.608C520.878 44.4687 521.122 44.2749 521.297 44.0263C521.473 43.7744 521.561 43.4844 521.561 43.1562C521.561 42.8149 521.473 42.5149 521.297 42.2564C521.125 41.9946 520.871 41.7891 520.537 41.6399C520.205 41.4908 519.804 41.4162 519.333 41.4162H518.473V40.1634H519.333C519.711 40.1634 520.043 40.0954 520.328 39.9595C520.616 39.8236 520.842 39.6347 521.004 39.3928C521.166 39.1475 521.248 38.8608 521.248 38.5327C521.248 38.2178 521.176 37.9444 521.034 37.7124C520.895 37.477 520.696 37.2931 520.437 37.1605C520.182 37.0279 519.88 36.9616 519.532 36.9616C519.201 36.9616 518.891 37.023 518.603 37.1456C518.318 37.2649 518.086 37.4373 517.907 37.6626C517.728 37.8847 517.632 38.1515 517.618 38.4631H516.132C516.148 37.9129 516.311 37.429 516.619 37.0114C516.931 36.5937 517.342 36.2673 517.852 36.032C518.362 35.7966 518.929 35.679 519.552 35.679C520.205 35.679 520.769 35.8066 521.243 36.0618C521.72 36.3137 522.088 36.6501 522.346 37.071C522.608 37.492 522.737 37.9527 522.734 38.4531C522.737 39.0232 522.578 39.5071 522.257 39.9048C521.939 40.3026 521.514 40.5694 520.984 40.7053V40.7848C521.66 40.8875 522.184 41.156 522.555 41.5902C522.93 42.0244 523.115 42.563 523.112 43.206C523.115 43.7661 522.959 44.2682 522.645 44.7124C522.333 45.1565 521.907 45.5062 521.367 45.7614C520.827 46.0133 520.208 46.1392 519.512 46.1392Z" fill="#475467"/>
</g>
<g clip-path="url(#clip4_8_3975)">
<path d="M557.531 46.0945C557.26 46.0945 557.026 45.9983 556.83 45.8061C556.635 45.6106 556.537 45.3752 556.537 45.1001C556.537 44.8284 556.635 44.5964 556.83 44.4041C557.026 44.2086 557.26 44.1108 557.531 44.1108C557.803 44.1108 558.037 44.2086 558.232 44.4041C558.428 44.5964 558.526 44.8284 558.526 45.1001C558.526 45.2824 558.479 45.4498 558.387 45.6023C558.297 45.7514 558.178 45.8707 558.029 45.9602C557.879 46.0497 557.714 46.0945 557.531 46.0945ZM561.496 46.0945C561.224 46.0945 560.991 45.9983 560.795 45.8061C560.6 45.6106 560.502 45.3752 560.502 45.1001C560.502 44.8284 560.6 44.5964 560.795 44.4041C560.991 44.2086 561.224 44.1108 561.496 44.1108C561.768 44.1108 562.002 44.2086 562.197 44.4041C562.393 44.5964 562.491 44.8284 562.491 45.1001C562.491 45.2824 562.444 45.4498 562.351 45.6023C562.262 45.7514 562.143 45.8707 561.993 45.9602C561.844 46.0497 561.679 46.0945 561.496 46.0945ZM565.461 46.0945C565.189 46.0945 564.956 45.9983 564.76 45.8061C564.565 45.6106 564.467 45.3752 564.467 45.1001C564.467 44.8284 564.565 44.5964 564.76 44.4041C564.956 44.2086 565.189 44.1108 565.461 44.1108C565.733 44.1108 565.967 44.2086 566.162 44.4041C566.358 44.5964 566.455 44.8284 566.455 45.1001C566.455 45.2824 566.409 45.4498 566.316 45.6023C566.227 45.7514 566.107 45.8707 565.958 45.9602C565.809 46.0497 565.643 46.0945 565.461 46.0945Z" fill="#475467"/>
</g>
<g clip-path="url(#clip5_8_3975)">
<path d="M603.497 46.1392C602.784 46.1392 602.155 46.0166 601.608 45.7713C601.064 45.526 600.638 45.188 600.33 44.7571C600.022 44.3262 599.869 43.8357 599.873 43.2855C599.869 42.8546 599.957 42.4586 600.136 42.0973C600.318 41.7327 600.565 41.4295 600.877 41.1875C601.188 40.9422 601.536 40.7865 601.921 40.7202V40.6605C601.414 40.5379 601.008 40.2661 600.703 39.8452C600.398 39.4242 600.247 38.9403 600.25 38.3935C600.247 37.8731 600.385 37.4091 600.663 37.0014C600.945 36.5904 601.331 36.2673 601.821 36.032C602.312 35.7966 602.87 35.679 603.497 35.679C604.117 35.679 604.67 35.7983 605.157 36.0369C605.648 36.2723 606.034 36.5954 606.316 37.0064C606.598 37.4141 606.74 37.8764 606.743 38.3935C606.74 38.9403 606.584 39.4242 606.276 39.8452C605.968 40.2661 605.567 40.5379 605.073 40.6605V40.7202C605.454 40.7865 605.797 40.9422 606.102 41.1875C606.41 41.4295 606.656 41.7327 606.838 42.0973C607.023 42.4586 607.118 42.8546 607.121 43.2855C607.118 43.8357 606.962 44.3262 606.654 44.7571C606.346 45.188 605.918 45.526 605.371 45.7713C604.828 46.0166 604.203 46.1392 603.497 46.1392ZM603.497 44.8814C603.918 44.8814 604.282 44.8118 604.591 44.6726C604.899 44.5301 605.138 44.3329 605.307 44.081C605.476 43.8258 605.562 43.5275 605.565 43.1861C605.562 42.8314 605.469 42.5182 605.287 42.2464C605.108 41.9747 604.864 41.7609 604.556 41.6051C604.248 41.4493 603.895 41.3714 603.497 41.3714C603.096 41.3714 602.74 41.4493 602.428 41.6051C602.116 41.7609 601.871 41.9747 601.692 42.2464C601.513 42.5182 601.425 42.8314 601.429 43.1861C601.425 43.5275 601.507 43.8258 601.672 44.081C601.841 44.3329 602.082 44.5301 602.393 44.6726C602.705 44.8118 603.073 44.8814 603.497 44.8814ZM603.497 40.1435C603.835 40.1435 604.135 40.0755 604.397 39.9396C604.659 39.8037 604.864 39.6148 605.013 39.3729C605.166 39.1309 605.244 38.8475 605.247 38.5227C605.244 38.2045 605.167 37.9261 605.018 37.6875C604.872 37.4489 604.669 37.2649 604.407 37.1357C604.145 37.0031 603.842 36.9368 603.497 36.9368C603.146 36.9368 602.837 37.0031 602.572 37.1357C602.31 37.2649 602.107 37.4489 601.961 37.6875C601.815 37.9261 601.744 38.2045 601.747 38.5227C601.744 38.8475 601.816 39.1309 601.966 39.3729C602.115 39.6148 602.32 39.8037 602.582 39.9396C602.847 40.0755 603.152 40.1435 603.497 40.1435Z" fill="#475467"/>
</g>
<g clip-path="url(#clip6_8_3975)">
<path d="M645.415 35.679C645.869 35.6823 646.316 35.7652 646.757 35.9276C647.198 36.09 647.596 36.3551 647.95 36.723C648.308 37.0909 648.593 37.5881 648.805 38.2145C649.021 38.8376 649.13 39.6132 649.134 40.5412C649.134 41.4328 649.044 42.2266 648.865 42.9226C648.686 43.6153 648.429 44.2003 648.095 44.6776C647.763 45.1548 647.36 45.5178 646.886 45.7663C646.412 46.0149 645.879 46.1392 645.286 46.1392C644.679 46.1392 644.14 46.0199 643.67 45.7812C643.199 45.5426 642.816 45.2128 642.521 44.7919C642.226 44.3677 642.042 43.8804 641.97 43.3303H643.486C643.585 43.7678 643.787 44.1224 644.092 44.3942C644.401 44.6626 644.798 44.7969 645.286 44.7969C646.031 44.7969 646.613 44.4721 647.031 43.8224C647.448 43.1695 647.659 42.258 647.662 41.0881H647.582C647.41 41.3731 647.195 41.6184 646.936 41.8239C646.681 42.0294 646.394 42.1884 646.076 42.3011C645.758 42.4138 645.418 42.4702 645.057 42.4702C644.47 42.4702 643.937 42.326 643.456 42.0376C642.975 41.7493 642.593 41.3532 642.308 40.8494C642.023 40.3456 641.88 39.7706 641.88 39.1243C641.88 38.4813 642.026 37.898 642.318 37.3743C642.613 36.8506 643.024 36.4363 643.551 36.1314C644.081 35.8232 644.702 35.6723 645.415 35.679ZM645.42 36.9716C645.032 36.9716 644.682 37.0677 644.371 37.2599C644.063 37.4489 643.819 37.7057 643.64 38.0305C643.461 38.352 643.372 38.71 643.372 39.1044C643.372 39.4988 643.458 39.8568 643.63 40.1783C643.806 40.4964 644.044 40.75 644.346 40.9389C644.651 41.1245 644.999 41.2173 645.39 41.2173C645.682 41.2173 645.953 41.161 646.205 41.0483C646.457 40.9356 646.678 40.7798 646.867 40.581C647.055 40.3788 647.203 40.1501 647.309 39.8949C647.415 39.6397 647.468 39.3712 647.468 39.0895C647.468 38.715 647.379 38.367 647.2 38.0455C647.024 37.724 646.782 37.4654 646.474 37.2699C646.166 37.071 645.814 36.9716 645.42 36.9716Z" fill="#475467"/>
</g>
<g clip-path="url(#clip7_8_3975)">
<path d="M684.515 35.8182V46H682.974V37.3594H682.914L680.478 38.9503V37.4787L683.019 35.8182H684.515ZM690.814 46.169C690.029 46.1657 689.358 45.9586 688.801 45.5476C688.244 45.1366 687.818 44.5384 687.523 43.7528C687.228 42.9673 687.081 42.0211 687.081 40.9141C687.081 39.8104 687.228 38.8674 687.523 38.0852C687.821 37.303 688.249 36.7064 688.806 36.2955C689.366 35.8845 690.035 35.679 690.814 35.679C691.593 35.679 692.261 35.8861 692.818 36.3004C693.375 36.7114 693.8 37.308 694.095 38.0902C694.394 38.8691 694.543 39.8104 694.543 40.9141C694.543 42.0244 694.395 42.9723 694.1 43.7578C693.805 44.54 693.38 45.1383 692.823 45.5526C692.266 45.9635 691.596 46.169 690.814 46.169ZM690.814 44.8416C691.504 44.8416 692.042 44.5052 692.43 43.8324C692.821 43.1596 693.017 42.1868 693.017 40.9141C693.017 40.0689 692.927 39.3546 692.748 38.7713C692.572 38.1847 692.319 37.7405 691.987 37.4389C691.659 37.134 691.268 36.9815 690.814 36.9815C690.128 36.9815 689.59 37.3196 689.198 37.9957C688.807 38.6719 688.61 39.6446 688.607 40.9141C688.607 41.7625 688.695 42.4801 688.87 43.0668C689.049 43.6501 689.303 44.0926 689.631 44.3942C689.959 44.6925 690.353 44.8416 690.814 44.8416Z" fill="#475467"/>
</g>
<g clip-path="url(#clip8_8_3975)">
<path d="M1029.37 35.8182V46H1027.73L1022.93 39.0646H1022.85V46H1021V35.8182H1022.65L1027.45 42.7585H1027.54V35.8182H1029.37ZM1034.68 46.1491C1033.92 46.1491 1033.26 45.9901 1032.7 45.6719C1032.15 45.3504 1031.72 44.8963 1031.42 44.3097C1031.12 43.7197 1030.97 43.0253 1030.97 42.2266C1030.97 41.4411 1031.12 40.7517 1031.42 40.1584C1031.72 39.5618 1032.14 39.0978 1032.68 38.7663C1033.22 38.4316 1033.86 38.2642 1034.59 38.2642C1035.06 38.2642 1035.5 38.3404 1035.92 38.4929C1036.34 38.642 1036.71 38.8741 1037.03 39.1889C1037.36 39.5038 1037.61 39.9048 1037.8 40.392C1037.99 40.8759 1038.08 41.4527 1038.08 42.1222V42.674H1031.82V41.4609H1036.35C1036.35 41.1162 1036.27 40.8097 1036.13 40.5412C1035.98 40.2694 1035.78 40.0556 1035.52 39.8999C1035.26 39.7441 1034.96 39.6662 1034.61 39.6662C1034.24 39.6662 1033.92 39.7557 1033.64 39.9347C1033.36 40.1103 1033.15 40.3423 1032.99 40.6307C1032.84 40.9157 1032.76 41.2289 1032.76 41.5703V42.6293C1032.76 43.0734 1032.84 43.4545 1033 43.7727C1033.16 44.0876 1033.39 44.3295 1033.68 44.4986C1033.97 44.6643 1034.32 44.7472 1034.71 44.7472C1034.97 44.7472 1035.21 44.7107 1035.42 44.6378C1035.63 44.5616 1035.81 44.4505 1035.97 44.3047C1036.13 44.1589 1036.24 43.9782 1036.32 43.7628L1038 43.9517C1037.9 44.3958 1037.7 44.7836 1037.4 45.1151C1037.1 45.4432 1036.72 45.6984 1036.26 45.8807C1035.8 46.0597 1035.28 46.1491 1034.68 46.1491ZM1040.91 38.3636L1042.45 41.1825L1044.02 38.3636H1045.92L1043.62 42.1818L1045.96 46H1044.06L1042.45 43.2507L1040.85 46H1038.94L1041.27 42.1818L1039 38.3636H1040.91ZM1051.12 38.3636V39.7557H1046.73V38.3636H1051.12ZM1047.82 36.5341H1049.62V43.7031C1049.62 43.9451 1049.65 44.1307 1049.73 44.2599C1049.8 44.3859 1049.9 44.4721 1050.03 44.5185C1050.15 44.5649 1050.28 44.5881 1050.43 44.5881C1050.55 44.5881 1050.65 44.5798 1050.74 44.5632C1050.84 44.5466 1050.91 44.5317 1050.96 44.5185L1051.26 45.9254C1051.17 45.9586 1051.03 45.995 1050.85 46.0348C1050.68 46.0746 1050.46 46.0978 1050.2 46.1044C1049.75 46.1177 1049.35 46.0497 1048.99 45.9006C1048.63 45.7481 1048.34 45.5128 1048.13 45.1946C1047.92 44.8764 1047.82 44.4787 1047.82 44.0014V36.5341Z" fill="#475467"/>
<path d="M1064.17 41H1075.83M1075.83 41L1070 35.1667M1075.83 41L1070 46.8334" stroke="#475467" stroke-width="1.66667" stroke-linecap="round" stroke-linejoin="round"/>
</g>
<defs>
<clipPath id="clip0_8_3975">
<rect width="87" height="20" fill="white" transform="translate(16 31)"/>
</clipPath>
<clipPath id="clip1_8_3975">
<rect x="415.5" y="21" width="40" height="40" rx="8" fill="white"/>
</clipPath>
<clipPath id="clip2_8_3975">
<rect x="457.5" y="21" width="40" height="40" rx="8" fill="white"/>
</clipPath>
<clipPath id="clip3_8_3975">
<rect x="499.5" y="21" width="40" height="40" rx="8" fill="white"/>
</clipPath>
<clipPath id="clip4_8_3975">
<rect x="541.5" y="21" width="40" height="40" rx="8" fill="white"/>
</clipPath>
<clipPath id="clip5_8_3975">
<rect x="583.5" y="21" width="40" height="40" rx="8" fill="white"/>
</clipPath>
<clipPath id="clip6_8_3975">
<rect x="625.5" y="21" width="40" height="40" rx="8" fill="white"/>
</clipPath>
<clipPath id="clip7_8_3975">
<rect x="667.5" y="21" width="40" height="40" rx="8" fill="white"/>
</clipPath>
<clipPath id="clip8_8_3975">
<rect width="60" height="20" fill="white" transform="translate(1020 31)"/>
</clipPath>
</defs>
</svg>
