<svg width="120" height="120" viewBox="0 0 120 120" fill="none" xmlns="http://www.w3.org/2000/svg">
<path d="M120 60C120 93.1371 93.1371 120 60 120C26.8629 120 0 93.1371 0 60C0 26.8629 26.8629 0 60 0C93.1371 0 120 26.8629 120 60ZM15 60C15 84.8528 35.1472 105 60 105C84.8528 105 105 84.8528 105 60C105 35.1472 84.8528 15 60 15C35.1472 15 15 35.1472 15 60Z" fill="#E9F2FF"/>
<path d="M60 0C72.6708 1.51097e-07 85.0163 4.0113 95.2671 11.459C105.518 18.9067 113.148 29.4084 117.063 41.459L102.798 46.0942C99.8609 37.0563 94.1385 29.18 86.4503 23.5942C78.7622 18.0085 69.5031 15 60 15V0Z" fill="#0179FE"/>
<path d="M117.063 41.459C120.483 51.9827 120.925 63.2471 118.342 74.0067C115.759 84.7663 110.251 94.602 102.426 102.426C94.602 110.251 84.7663 115.759 74.0067 118.342C63.2471 120.925 51.9828 120.483 41.459 117.063L46.0943 102.798C53.9871 105.362 62.4354 105.694 70.5051 103.757C78.5748 101.819 85.9515 97.6881 91.8198 91.8198C97.6881 85.9515 101.819 78.5747 103.757 70.505C105.694 62.4353 105.362 53.9871 102.798 46.0942L117.063 41.459Z" fill="#4893FF"/>
<path d="M41.459 117.063C29.4084 113.148 18.9067 105.518 11.459 95.2671L23.5942 86.4503C29.18 94.1385 37.0563 99.8609 46.0942 102.798L41.459 117.063Z" fill="#85B7FF"/>
<path d="M11.459 95.2671C2.4889 82.9209 -1.43957 67.6205 0.473119 52.48L15.3548 54.36C13.9203 65.7154 16.8667 77.1906 23.5942 86.4503L11.459 95.2671Z" fill="#BED9FF"/>
</svg>
