<svg width="40" height="40" viewBox="0 0 40 40" fill="none" xmlns="http://www.w3.org/2000/svg">
<rect width="40" height="40" rx="20" fill="#D1E9FF"/>
<path d="M22.5 24.1667V27.5H17.5V24.1667M14.3333 24.1667H25.6666C26.6 24.1667 27.0668 24.1667 27.4233 23.985C27.7369 23.8252 27.9918 23.5703 28.1516 23.2567C28.3333 22.9001 28.3333 22.4334 28.3333 21.5V15.1667C28.3333 14.2332 28.3333 13.7665 28.1516 13.41C27.9918 13.0964 27.7369 12.8414 27.4233 12.6817C27.0668 12.5 26.6 12.5 25.6666 12.5H14.3333C13.3999 12.5 12.9332 12.5 12.5766 12.6817C12.263 12.8414 12.0081 13.0964 11.8483 13.41C11.6666 13.7665 11.6666 14.2332 11.6666 15.1667V21.5C11.6666 22.4334 11.6666 22.9001 11.8483 23.2567C12.0081 23.5703 12.263 23.8252 12.5766 23.985C12.9332 24.1667 13.3999 24.1667 14.3333 24.1667Z" stroke="#175CD3" stroke-width="1.66667" stroke-linecap="round" stroke-linejoin="round"/>
</svg>
